<svg xmlns="http://www.w3.org/2000/svg" width="21.828" height="20.545" viewBox="0 0 21.828 20.545">
  <path id="allowance" d="M10.336,5.79l2.006.574a.338.338,0,0,1-.092.662H10.934a1.032,1.032,0,0,1-.413-.088.5.5,0,0,0-.566.08l-.7.7a.481.481,0,0,0,.06.738,2.932,2.932,0,0,0,1.276.461v.71a.644.644,0,0,0,.642.642h.642a.644.644,0,0,0,.642-.642V8.924A2.258,2.258,0,0,0,14.494,6.4a2.354,2.354,0,0,0-1.721-1.914l-2.006-.574a.338.338,0,0,1,.092-.662h1.316a1.032,1.032,0,0,1,.413.088.5.5,0,0,0,.566-.08l.7-.7a.481.481,0,0,0-.06-.738,2.932,2.932,0,0,0-1.276-.461V.642A.644.644,0,0,0,11.877,0h-.642a.644.644,0,0,0-.642.642v.706A2.258,2.258,0,0,0,8.615,3.876,2.354,2.354,0,0,0,10.336,5.79Zm11.087,7.375a1.205,1.205,0,0,0-1.617,0l-3.5,2.965a2.334,2.334,0,0,1-1.517.562H10.308a.643.643,0,0,1,0-1.284h2.965a1.285,1.285,0,0,0,.064-2.568H7.275A4.29,4.29,0,0,0,4.47,13.9L2.709,15.408H.606A.627.627,0,0,0,0,16.05V19.9a.627.627,0,0,0,.606.642H14.124a2.35,2.35,0,0,0,1.517-.562l5.73-4.855a1.333,1.333,0,0,0,.052-1.962Z" fill="#81b214"/>
</svg>
