<svg xmlns="http://www.w3.org/2000/svg" width="22.111" height="15.478" viewBox="0 0 22.111 15.478">
  <path id="bonus" d="M21.46,3.026a10.231,10.231,0,0,0-4.022-.776C13.183,2.25,8.928,4.4,4.673,4.4a10.482,10.482,0,0,1-3.2-.474,1.181,1.181,0,0,0-.358-.056A1.1,1.1,0,0,0,0,4.973V15.934a1.1,1.1,0,0,0,.651,1.018,10.225,10.225,0,0,0,4.022.776c4.255,0,8.511-2.154,12.766-2.154a10.482,10.482,0,0,1,3.2.474A1.181,1.181,0,0,0,21,16.1,1.1,1.1,0,0,0,22.111,15V4.044A1.1,1.1,0,0,0,21.46,3.026Zm-10.4,10.28A3.078,3.078,0,0,1,8.292,9.989a3.078,3.078,0,0,1,2.764-3.317,3.078,3.078,0,0,1,2.764,3.317A3.078,3.078,0,0,1,11.056,13.306Z" transform="translate(0 -2.25)" fill="#822659"/>
</svg>
