<svg xmlns="http://www.w3.org/2000/svg" width="16.5" height="16.5" viewBox="0 0 16.5 16.5">
  <path id="donations" d="M8.25,13.406a6.7,6.7,0,1,0-6.7-6.7A6.7,6.7,0,0,0,8.25,13.406ZM7.535,3.139V2.6a.534.534,0,0,1,.535-.535h.358a.534.534,0,0,1,.535.535v.548a2.541,2.541,0,0,1,1.386.5.361.361,0,0,1,.039.551l-.525.5a.363.363,0,0,1-.451.032,1.061,1.061,0,0,0-.574-.164H7.583a.561.561,0,0,0-.525.59.582.582,0,0,0,.39.567l2.008.6a2.019,2.019,0,0,1,1.408,1.937,1.987,1.987,0,0,1-1.9,2.011v.541a.534.534,0,0,1-.535.535H8.066a.534.534,0,0,1-.535-.535v-.548a2.541,2.541,0,0,1-1.386-.5.361.361,0,0,1-.039-.551l.525-.5a.363.363,0,0,1,.451-.032,1.061,1.061,0,0,0,.574.164H8.911a.561.561,0,0,0,.525-.59.582.582,0,0,0-.39-.567l-2.008-.6A2.019,2.019,0,0,1,5.63,5.15a1.989,1.989,0,0,1,1.9-2.011Zm7.934,8.2H14.421a7.811,7.811,0,0,1-2.353,2.063h2.056a.288.288,0,0,1,.309.258v.516a.288.288,0,0,1-.309.258H2.372a.288.288,0,0,1-.309-.258v-.516a.288.288,0,0,1,.309-.258H4.428a7.849,7.849,0,0,1-2.353-2.062H1.031A1.03,1.03,0,0,0,0,12.375v3.094A1.03,1.03,0,0,0,1.031,16.5H15.469A1.03,1.03,0,0,0,16.5,15.469V12.375A1.03,1.03,0,0,0,15.469,11.344Z" fill="#f33825"/>
</svg>
