<svg xmlns="http://www.w3.org/2000/svg" width="22.815" height="20" viewBox="0 0 22.815 20">
  <path id="food" d="M23.485,8.163l-1.87,14.662H15.3L13.434,8.09h7.713l1.524-5.265.864.26L22.073,8.152l1.412.011ZM12.541,16.645s.236-1.9-3.04-1.9H4.284c-3.271,0-3.04,1.9-3.04,1.9h11.3Zm-11.3,4.278s-.231,1.9,3.04,1.9H9.5c3.276,0,3.04-1.9,3.04-1.9H1.245Zm10.806-.951a1.093,1.093,0,0,0,.969-1.188,1.092,1.092,0,0,0-.969-1.189H1.69a1.094,1.094,0,0,0-.97,1.189,1.1,1.1,0,0,0,.97,1.188H12.051Z" transform="translate(-0.72 -2.825)" fill="#6ca414"/>
</svg>
