<svg xmlns="http://www.w3.org/2000/svg" width="18.625" height="16.297" viewBox="0 0 18.625 16.297">
  <path id="gifts" d="M1.164,17.383a1.163,1.163,0,0,0,1.164,1.164h5.82v-5.82H1.164Zm9.313,1.164H16.3a1.163,1.163,0,0,0,1.164-1.164V12.727H10.477ZM17.461,6.906H15.93A3.172,3.172,0,0,0,16.3,5.451a3.206,3.206,0,0,0-3.2-3.2c-1.513,0-2.492.775-3.747,2.485C8.094,3.025,7.115,2.25,5.6,2.25a3.206,3.206,0,0,0-3.2,3.2,3.127,3.127,0,0,0,.367,1.455h-1.6A1.163,1.163,0,0,0,0,8.07v2.91a.584.584,0,0,0,.582.582H18.043a.584.584,0,0,0,.582-.582V8.07A1.163,1.163,0,0,0,17.461,6.906ZM5.6,6.906A1.455,1.455,0,1,1,5.6,4c.724,0,1.259.12,3.132,2.91H5.6Zm7.5,0H9.964C11.834,4.123,12.354,4,13.1,4a1.455,1.455,0,1,1,0,2.91Z" transform="translate(0 -2.25)" fill="#6a097d"/>
</svg>
