<svg xmlns="http://www.w3.org/2000/svg" width="17.28" height="17.28" viewBox="0 0 17.28 17.28">
  <path id="health" d="M18,6.48a.361.361,0,0,0-.36-.36H12.96a.361.361,0,0,1-.36-.36V1.08a.361.361,0,0,0-.36-.36H6.48a.361.361,0,0,0-.36.36V5.76a.361.361,0,0,1-.36.36H1.08a.361.361,0,0,0-.36.36v5.76a.361.361,0,0,0,.36.36H5.76a.361.361,0,0,1,.36.36v4.68a.361.361,0,0,0,.36.36h5.76a.361.361,0,0,0,.36-.36V12.96a.361.361,0,0,1,.36-.36h4.68a.361.361,0,0,0,.36-.36Z" transform="translate(-0.72 -0.72)" fill="#fb3640"/>
</svg>
