<svg xmlns="http://www.w3.org/2000/svg" width="23.688" height="21.056" viewBox="0 0 23.688 21.056">
  <path id="household" d="M11.844,4.728,2.857,12.655a1.9,1.9,0,0,1-.225.138V20.4a.658.658,0,0,0,.658.658H9.427L7.9,18.062l4.282-2.632L9.7,10.527l6.089,5.625-4.282,2.632,1.642,2.272H20.4a.658.658,0,0,0,.658-.658v-7.6a1.919,1.919,0,0,1-.216-.132ZM23.47,9.717,21.056,7.586V1.974a.658.658,0,0,0-.658-.658H17.766a.658.658,0,0,0-.658.658V4.1L12.944.424a1.639,1.639,0,0,0-2.2,0L.218,9.717a.658.658,0,0,0-.05.929l.88.98a.658.658,0,0,0,.929.05l9.431-8.319a.659.659,0,0,1,.871,0l9.431,8.318a.659.659,0,0,0,.929-.05l.88-.98A.658.658,0,0,0,23.47,9.717Z" transform="translate(0)" fill="#e05297"/>
</svg>
