<svg xmlns="http://www.w3.org/2000/svg" width="13.284" height="20.287" viewBox="0 0 13.284 20.287">
  <path id="salary" d="M9.652,9.248,4.67,8a1.212,1.212,0,0,1-.978-1.121A1.276,1.276,0,0,1,5.053,5.706H8.111a3.152,3.152,0,0,1,1.578.416.81.81,0,0,0,.9-.079L12.194,4.7a.587.587,0,0,0-.083-.971A7.232,7.232,0,0,0,8.121,2.536V.634A.694.694,0,0,0,7.382,0H5.906a.694.694,0,0,0-.738.634v1.9H5.053C2.114,2.536-.248,4.7.024,7.275A4.819,4.819,0,0,0,3.89,11.1l4.729,1.189A1.215,1.215,0,0,1,9.6,13.413a1.276,1.276,0,0,1-1.361,1.169H5.177A3.152,3.152,0,0,1,3.6,14.166a.81.81,0,0,0-.9.079L1.094,15.592a.587.587,0,0,0,.083.971,7.232,7.232,0,0,0,3.991,1.189v1.9a.694.694,0,0,0,.738.634H7.382a.694.694,0,0,0,.738-.634v-1.91A5.251,5.251,0,0,0,13,14.863c.992-2.441-.674-4.945-3.345-5.615Z" transform="translate(-0.003)" fill="#1597bb"/>
</svg>
