<svg xmlns="http://www.w3.org/2000/svg" width="22.491" height="22.433" viewBox="0 0 22.491 22.433">
  <g id="self_development" transform="translate(-49.075 -691.997)">
    <path id="Icon_awesome-walking" data-name="Icon awesome-walking" d="M7.1,2.74A1.522,1.522,0,0,0,8.736,1.37,1.522,1.522,0,0,0,7.1,0,1.522,1.522,0,0,0,5.461,1.37,1.522,1.522,0,0,0,7.1,2.74ZM10.323,7l-.8-.337L9.2,5.82A3.706,3.706,0,0,0,5.71,3.654a8.673,8.673,0,0,0-3.184.719A3.1,3.1,0,0,0,.83,5.692L.6,6.08A.852.852,0,0,0,1.086,7.3,1.182,1.182,0,0,0,2.536,6.9l.229-.388a1.032,1.032,0,0,1,.563-.44l.914-.308L3.724,7.493a1.626,1.626,0,0,0,.508,1.678l2.044,1.867a1.773,1.773,0,0,1,.508.791l.624,2.092a1.123,1.123,0,0,0,1.324.665.917.917,0,0,0,.8-1.108l-.758-2.541a1.758,1.758,0,0,0-.508-.791L6.709,8.729,7.3,6.768l.188.471A1.956,1.956,0,0,0,8.566,8.3l.8.337a1.182,1.182,0,0,0,1.45-.408A.859.859,0,0,0,10.323,7ZM2.512,11.013a1.782,1.782,0,0,1-.485.614L.322,13.057a.813.813,0,0,0,0,1.293,1.245,1.245,0,0,0,1.542,0l2.027-1.7a1.867,1.867,0,0,0,.485-.614l.461-.965C2.949,9.354,3.516,9.882,3.219,9.543l-.706,1.47Z" transform="translate(49.074 691.997)" fill="#fecd1a"/>
    <g id="Icon_feather-bar-chart" data-name="Icon feather-bar-chart" transform="translate(54.536 695.608)">
      <path id="Path_12" data-name="Path 12" d="M18,25.826V15" transform="translate(-10.235 -8.504)" fill="none" stroke="#fecd1a" stroke-linecap="round" stroke-linejoin="round" stroke-width="3"/>
      <path id="Path_13" data-name="Path 13" d="M27,23.322V6" transform="translate(-11.47 -6)" fill="none" stroke="#fecd1a" stroke-linecap="round" stroke-linejoin="round" stroke-width="3"/>
      <path id="Path_14" data-name="Path 14" d="M9,28.33V24" transform="translate(-9 -11.009)" fill="none" stroke="#fecd1a" stroke-linecap="round" stroke-linejoin="round" stroke-width="3"/>
    </g>
  </g>
</svg>
