<svg id="settings" xmlns="http://www.w3.org/2000/svg" width="31.868" height="31.306" viewBox="0 0 31.868 31.306">
  <path id="Path_7" data-name="Path 7" d="M22.5,18A4.5,4.5,0,1,1,18,13.5,4.5,4.5,0,0,1,22.5,18Z" transform="translate(-2.066 -2.347)" fill="none" stroke="#b05aba" stroke-linecap="round" stroke-linejoin="round" stroke-width="3"/>
  <path id="Path_8" data-name="Path 8" d="M25.644,19.513a2.092,2.092,0,0,0,.433,2.342l.079.077a2.538,2.538,0,0,1,0,3.641,2.661,2.661,0,0,1-3.713,0l-.079-.077a2.2,2.2,0,0,0-2.388-.425,2.123,2.123,0,0,0-1.312,1.943v.219a2.625,2.625,0,0,1-5.249,0v-.116A2.126,2.126,0,0,0,12,25.174a2.2,2.2,0,0,0-2.388.425l-.079.077a2.661,2.661,0,0,1-3.713,0,2.538,2.538,0,0,1,0-3.641l.079-.077a2.092,2.092,0,0,0,.433-2.342,2.166,2.166,0,0,0-1.981-1.287H4.124a2.574,2.574,0,1,1,0-5.147h.118a2.163,2.163,0,0,0,1.981-1.39,2.092,2.092,0,0,0-.433-2.342l-.079-.077a2.538,2.538,0,0,1,0-3.641,2.661,2.661,0,0,1,3.713,0L9.5,5.81a2.2,2.2,0,0,0,2.388.425H12A2.123,2.123,0,0,0,13.31,4.292V4.073a2.625,2.625,0,0,1,5.249,0v.116A2.123,2.123,0,0,0,19.87,6.132a2.2,2.2,0,0,0,2.388-.425l.079-.077a2.661,2.661,0,0,1,3.713,0,2.538,2.538,0,0,1,0,3.641l-.079.077a2.092,2.092,0,0,0-.433,2.342v.1A2.166,2.166,0,0,0,27.52,13.08h.223a2.574,2.574,0,1,1,0,5.147h-.118a2.166,2.166,0,0,0-1.981,1.287Z" fill="none" stroke="#b05aba" stroke-linecap="round" stroke-linejoin="round" stroke-width="3"/>
</svg>
