<svg xmlns="http://www.w3.org/2000/svg" width="30.525" height="26" viewBox="0 0 30.525 26">
  <path id="stats" d="M29.571,26.167H3.816V5.583A1.025,1.025,0,0,0,2.862,4.5H.954A1.025,1.025,0,0,0,0,5.583v22.75A2.05,2.05,0,0,0,1.908,30.5H29.571a1.025,1.025,0,0,0,.954-1.083V27.25A1.025,1.025,0,0,0,29.571,26.167Zm-1.908-19.5H20.625a1.661,1.661,0,0,0-1.012,2.774l1.932,2.194L17.17,16.6,12.8,11.635a1.751,1.751,0,0,0-2.7,0L6,16.286a1.19,1.19,0,0,0,0,1.532L7.352,19.35a.876.876,0,0,0,1.349,0l2.746-3.119L15.821,21.2a1.751,1.751,0,0,0,2.7,0l5.723-6.5,1.932,2.194a1.417,1.417,0,0,0,2.443-1.149V7.75A1.024,1.024,0,0,0,27.663,6.667Z" transform="translate(0 -4.5)" fill="#b05aba"/>
</svg>
