<svg xmlns="http://www.w3.org/2000/svg" width="20.266" height="28.306" viewBox="0 0 20.266 28.306">
  <path id="transaction" d="M17.732,3.538H13.51A3.464,3.464,0,0,0,10.133,0,3.464,3.464,0,0,0,6.755,3.538H2.533A2.6,2.6,0,0,0,0,6.192V25.653a2.6,2.6,0,0,0,2.533,2.654h15.2a2.6,2.6,0,0,0,2.533-2.654V6.192A2.6,2.6,0,0,0,17.732,3.538ZM5.066,23.441a1.328,1.328,0,0,1,0-2.654,1.328,1.328,0,0,1,0,2.654Zm0-5.307a1.328,1.328,0,0,1,0-2.654,1.328,1.328,0,0,1,0,2.654Zm0-5.307a1.328,1.328,0,0,1,0-2.654,1.328,1.328,0,0,1,0,2.654ZM10.133,2.211A1.3,1.3,0,0,1,11.4,3.538a1.268,1.268,0,1,1-2.533,0A1.3,1.3,0,0,1,10.133,2.211Zm6.755,20.345a.434.434,0,0,1-.422.442h-7.6a.434.434,0,0,1-.422-.442v-.885a.434.434,0,0,1,.422-.442h7.6a.434.434,0,0,1,.422.442Zm0-5.307a.434.434,0,0,1-.422.442h-7.6a.434.434,0,0,1-.422-.442v-.885a.434.434,0,0,1,.422-.442h7.6a.434.434,0,0,1,.422.442Zm0-5.307a.434.434,0,0,1-.422.442h-7.6a.434.434,0,0,1-.422-.442v-.885a.434.434,0,0,1,.422-.442h7.6a.434.434,0,0,1,.422.442Z" fill="#b05aba"/>
</svg>
