<svg xmlns="http://www.w3.org/2000/svg" width="19.329" height="19.329" viewBox="0 0 19.329 19.329">
  <path id="travel" d="M18.423,4.832h-.3V3.02C18.121,1.329,14.376,0,9.664,0S1.208,1.329,1.208,3.02V4.832h-.3A.906.906,0,0,0,0,5.738v3.02a.906.906,0,0,0,.906.906h.3V15.7a1.208,1.208,0,0,0,1.208,1.208v1.208a1.208,1.208,0,0,0,1.208,1.208H4.832A1.208,1.208,0,0,0,6.04,18.121V16.913h7.248v1.208A1.208,1.208,0,0,0,14.5,19.329H15.7a1.208,1.208,0,0,0,1.208-1.208V16.913h.242a.953.953,0,0,0,.966-.966V9.664h.3a.906.906,0,0,0,.906-.906V5.738A.906.906,0,0,0,18.423,4.832ZM6.04,2.718a.3.3,0,0,1,.3-.3h6.644a.3.3,0,0,1,.3.3v.6a.3.3,0,0,1-.3.3H6.342a.3.3,0,0,1-.3-.3ZM4.228,15.1a1.208,1.208,0,1,1,1.208-1.208A1.208,1.208,0,0,1,4.228,15.1ZM9.06,10.872H4.832A1.208,1.208,0,0,1,3.624,9.664V6.04A1.208,1.208,0,0,1,4.832,4.832H9.06Zm1.208,0V4.832H14.5A1.208,1.208,0,0,1,15.7,6.04V9.664A1.208,1.208,0,0,1,14.5,10.872ZM15.1,15.1a1.208,1.208,0,1,1,1.208-1.208A1.208,1.208,0,0,1,15.1,15.1Z" fill="#29bb89"/>
</svg>
